<?xml version="1.0" standalone="no"?>
<!DOCTYPE svg PUBLIC "-//W3C//DTD SVG 20010904//EN"
 "http://www.w3.org/TR/2001/REC-SVG-20010904/DTD/svg10.dtd">
<svg version="1.0" xmlns="http://www.w3.org/2000/svg"
 width="1920.000000pt" height="1920.000000pt" viewBox="0 0 1920.000000 1920.000000"
 preserveAspectRatio="xMidYMid meet">

<g transform="translate(0.000000,1920.000000) scale(0.100000,-0.100000)"
fill="#000000" stroke="none">
<path d="M4782 3039 c-86 -11 -180 -57 -247 -120 -103 -97 -140 -193 -133
-348 3 -82 8 -106 35 -164 38 -80 117 -164 189 -200 156 -78 355 -63 488 38
85 64 86 67 30 128 -26 29 -51 56 -55 61 -5 5 -25 -6 -45 -24 -133 -116 -328
-96 -413 43 -10 18 -24 58 -31 90 -35 171 84 317 259 317 77 0 130 -21 188
-74 l40 -35 57 66 57 66 -38 39 c-51 52 -158 105 -230 113 -32 4 -65 8 -73 9
-8 2 -44 0 -78 -5z"/>
<path d="M8885 3038 c-186 -25 -281 -163 -230 -335 28 -95 92 -135 317 -197
71 -20 118 -58 118 -95 0 -65 -71 -101 -161 -82 -59 13 -97 31 -160 77 -26 19
-49 34 -52 34 -3 0 -29 -29 -57 -65 -45 -57 -50 -68 -39 -82 27 -32 134 -94
198 -114 74 -23 203 -28 267 -10 142 39 220 161 194 300 -21 114 -86 165 -275
217 -121 34 -159 58 -163 103 -10 96 121 116 272 40 33 -16 60 -29 62 -29 1 0
23 30 49 66 53 74 54 71 -38 119 -87 47 -201 66 -302 53z"/>
<path d="M10591 3039 c-108 -14 -195 -61 -273 -148 -83 -92 -114 -190 -105
-331 8 -143 72 -255 190 -331 167 -108 389 -94 544 33 26 22 49 45 50 51 2 7
-22 39 -51 72 l-54 59 -38 -33 c-109 -96 -260 -103 -360 -17 -109 93 -118 298
-17 392 105 99 280 99 384 -2 l35 -34 58 66 57 67 -37 38 c-89 91 -238 137
-383 118z"/>
<path d="M5240 3021 c0 -5 65 -123 145 -263 l145 -253 0 -167 0 -168 95 0 95
0 0 166 0 167 145 253 c80 140 145 258 145 264 0 6 -37 10 -93 10 -77 0 -97
-3 -109 -17 -8 -10 -52 -82 -97 -160 -46 -79 -84 -143 -86 -143 -2 0 -45 72
-96 160 l-93 160 -98 0 c-54 0 -98 -4 -98 -9z"/>
<path d="M6117 3023 c-4 -3 -7 -197 -7 -430 l0 -423 238 0 c254 0 301 6 361
49 41 30 79 97 87 154 13 95 -37 186 -123 222 l-36 15 43 37 c77 66 92 158 43
253 -39 74 -101 108 -220 120 -102 11 -376 13 -386 3z m367 -168 c48 -9 66
-32 66 -85 0 -73 -19 -84 -146 -88 l-104 -4 0 89 c0 50 2 92 4 94 6 6 144 1
180 -6z m64 -346 c39 -13 52 -35 52 -87 0 -28 -7 -45 -26 -63 -24 -22 -34 -24
-150 -27 l-124 -4 0 95 c0 51 3 97 8 102 10 10 200 -1 240 -16z"/>
<path d="M6967 3023 c-4 -3 -7 -197 -7 -430 l0 -423 319 0 318 0 2 80 2 80
-223 2 -223 3 -3 88 -3 87 196 0 195 0 0 85 0 85 -195 0 -196 0 3 88 3 87 195
2 c107 2 203 3 213 3 15 0 17 11 17 85 l0 85 -303 0 c-167 0 -307 -3 -310 -7z"/>
<path d="M7778 3025 c-5 -5 -8 -199 -8 -432 l0 -423 95 0 95 0 0 135 0 135 68
0 68 0 92 -135 93 -135 114 0 c63 0 115 3 115 6 0 3 -45 68 -100 145 -55 77
-100 143 -99 147 0 4 21 21 47 37 35 23 54 45 77 89 26 53 29 70 29 145 -1
147 -52 224 -174 262 -54 17 -103 21 -285 26 -121 3 -223 2 -227 -2z m424
-176 c47 -12 68 -49 68 -118 0 -42 -5 -56 -29 -83 l-29 -33 -126 -3 -126 -4 0
126 0 126 103 0 c56 0 119 -5 139 -11z"/>
<path d="M9457 3023 c-4 -3 -7 -197 -7 -430 l0 -423 320 0 320 0 0 80 0 80
-222 2 -223 3 -3 88 -3 87 196 0 195 0 0 85 0 85 -195 0 -196 0 3 88 3 87 213
3 213 2 -3 83 -3 82 -301 3 c-165 1 -303 -1 -307 -5z"/>
<path d="M11157 3024 c-14 -14 -8 -545 7 -599 20 -76 49 -126 101 -174 77 -71
121 -86 255 -86 107 0 119 2 173 29 69 35 130 99 158 163 31 73 40 178 37 433
l-3 235 -92 3 -91 3 -4 -278 c-3 -268 -4 -280 -26 -325 -33 -66 -72 -91 -147
-96 -50 -3 -66 0 -95 20 -19 13 -46 44 -60 68 -25 44 -25 49 -30 325 l-5 280
-85 3 c-47 1 -89 0 -93 -4z"/>
<path d="M12090 2602 l0 -432 95 0 95 0 0 135 0 135 68 0 67 -1 93 -134 93
-135 116 0 115 0 -17 28 c-10 15 -56 80 -102 144 -45 64 -83 120 -83 125 0 4
20 20 44 34 81 49 126 173 106 293 -20 123 -70 180 -186 211 -41 11 -127 18
-281 22 l-223 6 0 -431z m439 242 c49 -19 65 -55 59 -125 -4 -38 -12 -58 -32
-77 -25 -26 -31 -27 -151 -30 l-125 -4 0 126 0 126 105 0 c72 0 117 -5 144
-16z"/>
<path d="M12989 3023 c0 -4 0 -197 0 -428 l1 -420 92 -3 93 -3 -2 428 -2 428
-90 3 c-50 1 -91 -1 -92 -5z"/>
<path d="M13320 2945 l0 -85 120 0 120 0 0 -345 0 -345 95 0 95 0 0 345 0 345
125 0 126 0 -3 83 -3 82 -337 3 -338 2 0 -85z"/>
<path d="M14030 3018 c0 -6 65 -126 145 -265 l145 -252 0 -166 0 -165 95 0 95
0 0 169 0 169 145 253 c80 140 145 257 145 260 0 4 -44 7 -99 8 l-98 2 -94
-161 c-51 -88 -97 -156 -101 -152 -5 5 -48 75 -96 158 l-87 149 -98 3 c-71 2
-97 -1 -97 -10z"/>
</g>
</svg>
