<?xml version="1.0" standalone="no"?>
<!DOCTYPE svg PUBLIC "-//W3C//DTD SVG 20010904//EN"
 "http://www.w3.org/TR/2001/REC-SVG-20010904/DTD/svg10.dtd">
<svg version="1.0" xmlns="http://www.w3.org/2000/svg"
 width="980.000000pt" height="980.000000pt" viewBox="0 0 980.000000 980.000000"
 preserveAspectRatio="xMidYMid meet">

<g transform="translate(0.000000,980.000000) scale(0.100000,-0.100000)"
fill="#000000" stroke="none">
<path d="M4550 9789 c-641 -48 -1237 -210 -1815 -494 -777 -381 -1446 -972
-1928 -1701 -443 -671 -709 -1432 -789 -2254 -20 -206 -17 -726 5 -930 66
-608 222 -1147 482 -1675 726 -1473 2147 -2489 3767 -2694 362 -46 796 -53
1128 -16 1368 148 2579 829 3404 1915 800 1053 1136 2370 941 3695 -123 838
-485 1661 -1027 2337 -214 266 -492 542 -773 767 -861 688 -1957 1067 -3064
1060 -119 -1 -268 -6 -331 -10z m1902 -2657 c104 -51 181 -149 208 -264 6 -27
10 -523 10 -1347 l0 -1304 52 52 c312 312 902 60 1181 -504 87 -176 127 -341
127 -520 0 -202 -49 -349 -154 -462 -98 -106 -207 -153 -350 -153 -198 1 -391
89 -573 262 -86 83 -192 214 -221 276 l-16 32 -355 0 -356 -1 -54 -86 c-103
-163 -264 -310 -433 -398 -196 -102 -417 -113 -567 -29 l-44 24 -915 0 -916 0
-23 22 c-51 48 -12 160 91 264 87 87 197 143 446 229 191 66 265 102 322 159
l41 41 -944 5 -944 5 -59 24 c-81 34 -158 107 -198 189 l-33 67 0 1590 0 1590
22 48 c46 100 127 174 228 209 47 16 179 17 2205 15 l2155 -2 67 -33z"/>
<path d="M2103 7020 c-94 -22 -164 -92 -182 -182 -8 -37 -11 -501 -9 -1568 l3
-1515 22 -41 c28 -53 91 -107 142 -122 28 -9 383 -12 1348 -12 l1310 0 23 63
c12 34 42 101 66 150 l44 87 -1281 0 c-1363 0 -1325 -1 -1343 45 -3 9 -6 632
-6 1384 l0 1368 23 21 23 22 1930 0 c1651 0 1933 -2 1950 -14 19 -14 19 -42
24 -1268 l5 -1253 160 0 160 0 3 1320 c2 1204 1 1324 -14 1364 -22 58 -69 110
-124 135 l-45 21 -2100 2 c-1155 0 -2114 -2 -2132 -7z"/>
<path d="M2390 5300 l0 -1270 1291 0 1291 0 78 79 c82 83 190 165 275 208 105
54 184 75 302 80 99 5 122 3 184 -17 68 -22 161 -81 203 -128 11 -12 23 -22
27 -22 5 0 9 527 9 1170 l0 1170 -1830 0 -1830 0 0 -1270z m3331 939 c47 -24
41 -111 -8 -130 -14 -5 -311 -9 -707 -9 -673 0 -683 0 -704 20 -33 31 -33 85
0 113 19 16 68 17 710 17 467 0 696 -3 709 -11z m-2141 -149 c36 -36 26 -69
-91 -272 -62 -106 -143 -247 -181 -313 -75 -129 -97 -155 -135 -155 -30 0 -73
42 -73 71 0 23 352 641 383 671 23 24 72 23 97 -2z m-575 -45 c46 -45 36 -67
-92 -197 l-117 -118 117 -118 c79 -80 117 -126 117 -141 0 -59 -51 -91 -104
-66 -18 9 -94 78 -169 154 -182 183 -183 160 15 358 167 167 185 177 233 128z
m927 -122 c81 -81 151 -155 154 -166 3 -10 3 -30 0 -43 -9 -34 -272 -297 -314
-314 -30 -12 -36 -11 -60 7 -19 14 -28 31 -30 57 -3 36 2 43 112 154 l116 117
-115 115 c-99 99 -115 120 -115 147 0 40 33 73 74 73 25 0 53 -24 178 -147z
m1776 -124 c50 -17 62 -77 24 -121 -14 -17 -61 -18 -711 -18 -781 0 -741 -4
-741 69 0 37 17 62 50 74 30 11 1346 7 1378 -4z m24 -456 c24 -28 28 -50 17
-83 -8 -22 -20 -32 -47 -40 -25 -8 -255 -10 -708 -8 -644 3 -673 4 -693 22
-14 13 -21 31 -21 57 0 73 -40 69 741 69 650 0 697 -1 711 -17z m-18 -433 c43
-16 52 -90 14 -122 -19 -17 -106 -18 -1512 -18 -1488 0 -1492 0 -1514 20 -32
30 -30 82 4 109 l27 21 1478 0 c925 0 1487 -4 1503 -10z m-662 -457 c23 -20
24 -80 1 -105 -15 -17 -65 -18 -1176 -18 -1066 0 -1162 1 -1179 17 -23 20 -24
80 -1 105 15 17 65 18 1176 18 1066 0 1162 -1 1179 -17z"/>
<path d="M5555 4246 c-223 -51 -452 -250 -594 -517 -176 -330 -176 -689 0
-860 222 -216 651 -38 894 371 21 36 48 75 59 88 l19 22 424 0 424 0 20 -22
c11 -13 52 -72 91 -132 171 -262 408 -420 630 -419 64 0 87 5 140 30 264 125
302 514 90 928 -197 382 -584 609 -838 489 -48 -23 -124 -94 -167 -158 l-18
-26 -369 0 -369 0 -55 69 c-85 107 -138 137 -253 146 -40 3 -92 -1 -128 -9z
m1664 -222 c17 -21 21 -41 21 -96 0 -82 -18 -123 -56 -131 -67 -12 -94 26 -94
133 0 62 3 74 25 95 33 34 77 33 104 -1z m-1663 -85 c15 -17 20 -40 22 -120
l4 -99 97 0 c110 0 134 -13 134 -70 0 -55 -25 -70 -119 -70 -118 0 -114 4
-114 -102 0 -86 -1 -91 -30 -119 -23 -24 -34 -28 -57 -23 -51 12 -58 27 -63
137 l-5 102 -100 3 c-111 3 -135 16 -135 73 0 55 28 69 140 69 l100 0 0 100
c0 87 3 103 20 120 27 27 81 26 106 -1z m1957 -200 c45 -61 -7 -119 -105 -119
-121 0 -177 62 -113 126 23 23 31 25 111 22 81 -3 88 -5 107 -29z m-460 -11
c21 -29 18 -65 -8 -92 -35 -35 -179 -32 -216 5 -28 28 -25 73 8 99 23 18 38
20 111 18 79 -3 86 -5 105 -30z m172 -163 c21 -20 25 -33 25 -88 0 -35 -5 -78
-11 -95 -20 -58 -108 -63 -129 -7 -6 15 -10 57 -10 94 0 54 4 74 21 95 27 34
71 35 104 1z"/>
<path d="M4089 3378 c-57 -124 -173 -197 -489 -308 -201 -71 -274 -107 -339
-167 l-46 -42 778 -1 c427 0 777 2 777 4 0 2 -11 28 -24 57 -14 30 -31 85 -39
123 l-13 69 -109 56 c-120 61 -216 145 -249 219 l-19 42 -102 0 -102 0 -24
-52z"/>
<path d="M4490 3422 c0 -20 74 -80 130 -107 33 -16 62 -27 64 -24 2 2 7 34 11
72 l7 67 -106 0 c-58 0 -106 -4 -106 -8z"/>
</g>
</svg>
