<?xml version="1.0" standalone="no"?>
<!DOCTYPE svg PUBLIC "-//W3C//DTD SVG 20010904//EN"
 "http://www.w3.org/TR/2001/REC-SVG-20010904/DTD/svg10.dtd">
<svg version="1.0" xmlns="http://www.w3.org/2000/svg"
 width="1375.000000pt" height="1375.000000pt" viewBox="0 0 1375.000000 1375.000000"
 preserveAspectRatio="xMidYMid meet">

<g transform="translate(0.000000,1375.000000) scale(0.100000,-0.100000)"
fill="#000000" stroke="none">
<path d="M4785 13399 c-306 -24 -576 -129 -780 -303 -73 -62 -67 -56 -136
-136 -101 -117 -186 -258 -244 -405 -15 -38 -31 -79 -36 -90 -4 -11 -13 -38
-20 -60 -6 -22 -15 -51 -19 -65 -5 -14 -13 -47 -20 -75 -6 -27 -15 -66 -20
-85 -11 -44 -26 -130 -42 -245 -20 -140 -17 -733 5 -910 26 -210 52 -392 60
-415 3 -8 8 -34 11 -58 7 -48 21 -39 -140 -97 -50 -18 -108 -40 -130 -50 -21
-9 -48 -21 -59 -25 -196 -78 -496 -229 -648 -327 -37 -23 -72 -43 -77 -43 -6
0 -10 -4 -10 -10 0 -5 -5 -10 -11 -10 -16 0 -209 -141 -314 -229 -351 -296
-560 -611 -626 -941 -17 -86 -23 -316 -9 -395 54 -320 177 -564 425 -844 86
-97 236 -237 330 -306 22 -17 42 -32 45 -35 3 -3 21 -17 40 -30 19 -13 37 -27
40 -30 9 -12 211 -140 220 -140 6 0 10 -4 10 -9 0 -5 8 -11 18 -14 9 -4 36
-18 60 -32 94 -56 439 -224 492 -240 26 -8 103 -40 132 -56 10 -5 27 -9 38 -9
11 0 20 -4 20 -10 0 -5 9 -10 20 -10 11 0 29 -5 40 -10 11 -6 29 -14 40 -20
11 -5 29 -10 41 -10 19 0 20 -4 14 -52 -3 -29 -10 -73 -15 -98 -10 -44 -23
-145 -42 -305 -28 -244 -46 -671 -29 -688 7 -7 11 -59 11 -129 0 -72 4 -118
10 -118 6 0 10 -27 10 -60 0 -33 3 -60 6 -60 3 0 107 96 232 213 l227 213 1
299 c1 267 4 321 28 490 14 105 31 213 36 240 24 128 45 230 61 295 6 25 13
59 15 75 l5 30 -183 59 c-170 55 -237 79 -313 111 -290 124 -420 187 -582 286
-36 21 -67 39 -70 39 -21 0 -296 206 -388 291 -80 74 -101 95 -166 169 -87
100 -133 167 -189 275 -83 160 -116 316 -100 471 16 159 63 281 166 440 49 75
217 274 232 274 4 1 34 26 67 56 169 157 551 388 830 503 44 18 104 44 133 57
29 13 56 24 61 24 8 0 90 31 136 51 26 11 175 60 288 94 48 14 87 28 87 29 0
4 -20 104 -30 146 -100 441 -144 890 -122 1218 35 496 147 816 360 1032 145
146 306 220 524 239 381 35 848 -130 1368 -482 98 -66 249 -174 260 -187 3 -3
55 -46 115 -95 114 -93 150 -124 244 -212 31 -29 61 -53 66 -53 6 0 29 19 50
41 34 35 291 261 351 309 367 291 727 500 1040 605 181 61 357 95 494 95 130
0 321 -43 409 -92 121 -68 248 -186 323 -299 31 -47 98 -179 129 -254 64 -157
110 -400 129 -686 12 -164 11 -237 -6 -444 l-7 -80 54 50 c30 28 147 137 262
244 l207 193 0 134 c0 78 -4 135 -10 139 -6 3 -10 48 -10 100 0 52 -4 97 -10
100 -5 3 -10 33 -10 65 0 32 -4 62 -10 65 -5 3 -10 26 -10 50 0 24 -4 47 -10
50 -5 3 -10 18 -10 33 -1 31 -33 158 -43 168 -4 4 -7 18 -7 30 0 13 -4 26 -10
29 -5 3 -10 17 -10 31 0 13 -4 24 -10 24 -5 0 -10 7 -10 15 0 8 -4 23 -9 33
-5 9 -25 51 -45 92 -46 96 -76 150 -98 174 -10 11 -18 24 -18 29 0 4 -6 14
-12 21 -7 7 -26 31 -43 52 -32 42 -173 186 -216 221 -100 80 -271 174 -369
202 -25 7 -54 17 -65 21 -100 41 -440 59 -605 32 -197 -31 -344 -71 -525 -142
-45 -17 -117 -51 -255 -119 -158 -77 -203 -102 -208 -113 -2 -5 -8 -8 -13 -8
-10 0 -95 -53 -181 -111 -31 -22 -61 -39 -67 -39 -6 0 -11 -4 -11 -8 0 -4 -14
-16 -32 -27 -32 -18 -268 -193 -278 -205 -3 -4 -30 -26 -60 -49 -30 -24 -71
-57 -90 -75 -69 -61 -68 -61 -88 -39 -14 15 -173 150 -232 197 -164 129 -495
356 -518 356 -6 0 -12 3 -14 8 -1 4 -16 15 -33 25 -35 20 -311 156 -340 167
-11 5 -41 17 -66 28 -169 75 -435 141 -634 157 -44 3 -93 8 -110 9 -16 2 -79
0 -140 -5z"/>
<path d="M4814 12406 c-87 -20 -141 -51 -204 -115 -65 -67 -127 -185 -164
-312 -85 -294 -91 -780 -15 -1239 31 -189 81 -425 92 -437 3 -3 74 9 159 26
84 17 180 36 213 42 33 6 80 14 105 19 148 28 548 81 717 96 l72 6 52 71 c155
211 200 270 292 386 89 111 242 297 257 311 3 3 36 41 75 85 38 44 82 94 97
110 16 17 28 35 28 40 0 18 -273 256 -415 361 -33 25 -67 51 -75 57 -30 24
-238 167 -244 167 -3 0 -33 18 -66 39 -55 36 -275 149 -360 184 -216 92 -475
135 -616 103z"/>
<path d="M8620 12399 c-92 -24 -220 -65 -280 -91 -73 -32 -263 -129 -292 -149
-14 -11 -29 -19 -32 -19 -10 0 -243 -156 -325 -218 -104 -78 -94 -70 -206
-163 -95 -78 -131 -110 -249 -220 l-50 -47 56 -58 c87 -92 288 -327 368 -431
14 -18 54 -69 89 -115 88 -112 153 -199 171 -224 128 -185 107 -170 265 -185
137 -12 335 -37 470 -59 409 -66 451 -73 475 -84 11 -4 49 25 124 96 l107 103
10 65 c6 36 15 92 20 125 24 142 40 308 55 560 7 108 -6 318 -27 460 -26 173
-89 375 -139 444 -11 16 -20 33 -20 39 0 15 -117 130 -151 148 -96 49 -296 60
-439 23z"/>
<path d="M6845 11138 c-28 -29 -77 -84 -110 -123 -33 -38 -64 -75 -70 -81 -38
-43 -68 -78 -120 -144 -33 -41 -66 -81 -72 -88 -17 -18 -123 -159 -123 -163 0
-2 245 -4 544 -4 361 0 542 3 537 10 -31 42 -107 141 -111 145 -3 3 -21 25
-40 50 -19 25 -48 61 -65 81 -16 19 -39 46 -50 60 -56 66 -179 210 -222 257
l-48 54 -50 -54z"/>
<path d="M6385 10109 c-77 -4 -190 -10 -251 -14 l-112 -7 -54 -81 c-103 -153
-255 -393 -318 -502 -10 -16 -38 -65 -64 -108 -25 -43 -46 -80 -46 -83 0 -3
-8 -18 -18 -32 -11 -15 -36 -58 -57 -97 -21 -38 -59 -108 -84 -155 -26 -47
-87 -165 -136 -263 l-90 -179 100 -196 c55 -109 122 -238 150 -287 27 -50 57
-104 65 -120 8 -17 27 -49 42 -72 15 -23 28 -44 28 -48 0 -3 39 -70 86 -148
47 -78 95 -158 106 -177 11 -19 23 -37 27 -40 7 -6 16 -20 68 -107 21 -35 41
-63 45 -63 7 0 568 519 568 526 0 2 -21 17 -47 35 -67 45 -173 153 -220 224
-114 173 -163 380 -137 582 24 196 91 341 224 487 50 53 159 143 190 154 8 3
17 8 20 12 8 10 148 66 215 85 70 21 327 26 385 8 116 -36 150 -48 190 -67 25
-11 47 -24 48 -28 2 -4 8 -8 14 -8 20 0 134 -89 188 -147 81 -87 102 -113 126
-161 l22 -44 244 228 c133 125 244 233 246 239 1 6 -9 28 -22 48 -14 20 -36
56 -49 79 -32 56 -108 179 -225 360 l-95 146 -126 7 c-69 3 -201 10 -293 15
-190 11 -743 11 -953 -1z"/>
<path d="M5365 10020 c-22 -4 -78 -13 -125 -20 -47 -6 -109 -16 -137 -21 -29
-5 -77 -13 -105 -18 -181 -32 -344 -66 -352 -72 -9 -8 46 -187 104 -339 99
-262 174 -452 181 -455 4 -3 23 25 41 63 61 118 137 255 248 447 63 110 161
271 202 334 26 40 48 77 48 82 0 11 -49 10 -105 -1z"/>
<path d="M8310 10024 c0 -5 9 -20 20 -34 11 -14 20 -31 20 -37 0 -7 5 -13 10
-13 6 0 10 -6 10 -13 0 -7 9 -23 20 -35 11 -12 20 -24 20 -27 0 -3 12 -24 28
-48 15 -23 29 -47 32 -54 3 -7 53 33 120 96 l114 108 -39 7 c-41 8 -103 18
-215 35 -36 5 -82 13 -102 17 -21 3 -38 3 -38 -2z"/>
<path d="M4165 9770 c-11 -5 -76 -27 -145 -49 -537 -170 -990 -414 -1251 -673
-179 -177 -244 -307 -237 -473 3 -83 8 -101 42 -171 141 -288 504 -573 1026
-806 19 -9 58 -26 85 -38 72 -33 324 -125 380 -140 17 -4 50 -15 75 -24 58
-20 90 -21 90 0 0 15 53 179 84 260 8 21 31 86 51 144 20 58 43 119 50 135 7
17 21 50 30 75 20 53 28 73 48 120 8 19 36 87 62 150 46 112 69 166 114 261
l22 47 -34 73 c-75 159 -198 460 -268 654 -22 60 -49 133 -59 160 -11 28 -38
107 -60 178 -44 135 -49 141 -105 117z"/>
<path d="M4860 7908 c-72 -181 -144 -381 -199 -549 l-28 -87 56 -12 c31 -6 74
-15 96 -20 22 -5 58 -12 80 -15 22 -4 63 -11 90 -16 47 -8 112 -19 245 -39 96
-14 260 -32 269 -28 5 2 -15 40 -45 86 -30 45 -54 85 -54 87 0 3 -15 29 -33
58 -49 76 -96 155 -130 217 -17 30 -38 67 -49 82 -10 14 -18 28 -18 31 0 3
-16 34 -36 69 -20 34 -66 119 -102 188 -36 69 -66 126 -68 128 -1 2 -35 -79
-74 -180z"/>
<path d="M4507 6818 c-3 -18 -10 -53 -16 -78 -15 -64 -38 -189 -56 -305 -9
-55 -20 -122 -25 -148 -6 -27 -10 -81 -10 -121 0 -40 -5 -87 -11 -103 -5 -17
-9 -52 -7 -79 l3 -48 423 394 c232 216 422 397 422 401 0 4 -28 10 -62 12 -35
3 -88 10 -118 15 -53 10 -123 22 -240 41 -30 5 -100 19 -154 30 -136 29 -143
28 -149 -11z"/>
<path d="M8698 3743 c-67 -73 -458 -581 -664 -863 -319 -435 -386 -525 -395
-525 -5 0 -30 29 -56 65 -46 63 -335 465 -491 683 l-77 107 -63 0 c-48 0 -61
-3 -56 -12 13 -21 54 -79 141 -199 474 -656 523 -725 523 -740 0 -8 -24 -46
-53 -85 -28 -39 -97 -133 -152 -208 -97 -134 -290 -397 -440 -603 -41 -56 -75
-104 -75 -107 0 -3 28 -6 63 -6 l62 0 190 261 c105 143 197 270 205 282 8 12
58 81 110 152 53 72 111 151 130 178 18 26 36 47 39 47 5 0 186 -248 426 -583
44 -62 118 -163 163 -224 l84 -113 64 0 c35 0 64 2 64 5 0 3 -37 56 -83 118
-46 61 -173 236 -282 387 -110 151 -224 309 -254 350 -30 41 -65 89 -78 107
-13 17 -23 36 -23 42 0 6 127 194 282 419 155 224 321 463 368 532 176 255
344 496 362 519 36 47 8 59 -34 14z"/>
<path d="M3775 3198 c-3 -7 -4 -447 -3 -978 l3 -965 50 0 50 0 6 265 c4 146 7
552 8 903 0 350 5 637 9 637 5 0 44 -51 86 -112 42 -62 128 -187 191 -278 63
-91 152 -221 199 -290 99 -146 391 -571 467 -680 29 -41 106 -154 172 -250
140 -204 788 -1072 796 -1065 2 3 -15 33 -39 68 -41 60 -297 440 -805 1197
-131 195 -420 626 -642 958 l-405 602 -69 0 c-47 0 -71 -4 -74 -12z"/>
<path d="M5430 2230 l0 -980 665 0 665 0 0 45 0 45 -594 0 c-327 0 -601 3
-610 6 -14 5 -16 53 -16 435 0 413 1 429 19 439 13 6 210 10 571 10 l551 0 -3
43 -3 42 -565 5 -565 5 0 395 0 395 594 2 c334 2 598 6 603 11 5 5 8 25 6 43
l-3 34 -657 3 -658 2 0 -980z"/>
<path d="M8510 3165 l0 -45 323 -1 c177 -1 333 -2 347 -3 l25 -1 3 -933 2
-933 53 3 52 3 3 932 2 932 343 0 342 0 3 46 3 45 -750 0 -751 0 0 -45z"/>
<path d="M10610 1809 c-82 -14 -116 -48 -114 -117 1 -64 35 -90 157 -124 82
-22 109 -66 68 -107 -43 -43 -143 -34 -176 15 -11 16 -24 24 -37 22 -35 -5
-32 -27 10 -67 30 -29 50 -39 83 -43 73 -8 115 2 154 36 32 27 37 37 37 79 1
61 -26 91 -101 113 -99 29 -131 45 -138 72 -19 78 111 111 168 43 42 -51 83
-37 54 18 -24 47 -95 72 -165 60z"/>
<path d="M10330 1645 c0 -152 -2 -167 -20 -185 -12 -12 -33 -20 -52 -20 -39 0
-51 7 -66 37 -8 15 -18 20 -32 16 -28 -7 -32 -17 -19 -46 23 -52 111 -75 177
-48 55 23 62 49 62 241 l0 170 -25 0 -25 0 0 -165z"/>
<path d="M9975 1440 c-13 -41 43 -70 64 -33 13 25 -5 53 -34 53 -15 0 -26 -7
-30 -20z"/>
<path d="M7510 1039 c-32 -13 -78 -56 -96 -91 -18 -35 -18 -111 0 -146 22 -43
48 -61 143 -100 48 -21 102 -46 119 -56 93 -56 89 -197 -6 -246 -47 -24 -126
-26 -177 -5 -20 9 -55 36 -78 61 -36 39 -43 43 -54 30 -10 -12 -5 -23 31 -62
55 -61 106 -83 184 -84 159 0 258 134 194 264 -24 50 -77 87 -179 124 -45 16
-89 41 -113 63 -32 31 -38 42 -38 78 0 54 22 97 63 121 60 37 162 20 204 -34
18 -23 22 -24 33 -11 11 13 9 20 -11 42 -50 54 -153 78 -219 52z"/>
<path d="M10280 860 c0 -73 -2 -80 -20 -80 -11 0 -20 -7 -20 -15 0 -8 9 -15
20 -15 19 0 20 -7 20 -174 0 -173 0 -175 26 -205 26 -31 68 -41 108 -25 28 11
19 36 -11 33 -78 -6 -83 8 -83 211 l0 160 55 0 c42 0 55 3 55 15 0 12 -13 15
-55 15 l-55 0 0 80 c0 73 -2 80 -20 80 -18 0 -20 -7 -20 -80z"/>
<path d="M8417 913 c-22 -21 2 -56 31 -46 20 7 15 53 -6 53 -10 0 -22 -3 -25
-7z"/>
<path d="M8035 774 c-16 -8 -37 -22 -47 -31 -15 -13 -17 -12 -20 9 -2 15 -10
23 -23 23 -19 0 -20 -8 -23 -212 l-2 -213 25 0 25 0 0 164 c0 162 0 165 26
195 53 63 161 62 206 -2 21 -30 23 -44 26 -194 4 -153 5 -163 23 -163 18 0 19
9 19 158 0 144 -2 162 -22 202 -27 54 -73 80 -138 80 -25 0 -58 -7 -75 -16z"/>
<path d="M8755 771 c-23 -10 -53 -32 -67 -50 l-27 -31 -3 42 c-2 35 -7 43 -23
43 -20 0 -20 -7 -20 -320 0 -313 0 -320 20 -320 19 0 20 8 23 153 l3 152 30
-34 c40 -47 104 -70 173 -64 106 9 177 86 184 200 5 79 -9 127 -51 175 -61 69
-160 91 -242 54z m162 -38 c80 -38 117 -162 75 -256 -59 -133 -254 -135 -319
-2 -30 59 -22 154 15 204 35 48 80 71 139 71 30 0 71 -7 90 -17z"/>
<path d="M9325 771 c-23 -10 -53 -32 -67 -50 l-27 -31 -3 42 c-2 35 -7 43 -23
43 -20 0 -20 -7 -20 -320 0 -313 0 -320 20 -320 19 0 20 8 23 153 l3 152 30
-34 c63 -72 188 -87 267 -32 112 77 125 265 26 358 -62 58 -154 74 -229 39z
m162 -38 c80 -38 117 -162 75 -256 -59 -133 -254 -135 -319 -2 -30 59 -22 154
15 204 35 48 80 71 139 71 30 0 71 -7 90 -17z"/>
<path d="M9865 779 c-42 -12 -102 -64 -124 -107 -78 -155 26 -332 196 -332 72
0 116 16 164 59 37 33 41 40 27 46 -12 5 -29 -3 -53 -23 -73 -65 -182 -67
-255 -5 -35 29 -54 63 -63 111 l-6 32 199 0 200 0 0 33 c-1 75 -72 165 -147
186 -45 13 -96 13 -138 0z m162 -51 c40 -24 71 -66 79 -107 l7 -31 -177 0
-176 0 0 24 c0 28 35 82 71 109 54 40 135 42 196 5z"/>
<path d="M10585 772 c-44 -27 -57 -47 -57 -88 0 -49 35 -84 120 -118 82 -34
102 -51 102 -87 0 -60 -49 -109 -110 -109 -36 0 -89 30 -107 61 -17 29 -33 33
-40 12 -5 -15 44 -71 78 -88 36 -19 100 -19 144 -1 62 26 92 107 63 171 -11
24 -57 51 -150 89 -52 20 -74 57 -58 95 22 55 107 66 156 20 29 -27 53 -15 27
13 -44 49 -116 62 -168 30z"/>
<path d="M8417 774 c-4 -4 -7 -101 -7 -216 l0 -208 25 0 25 0 -2 212 c-3 183
-5 213 -18 216 -9 1 -19 0 -23 -4z"/>
</g>
</svg>
